<svg width="24" height="24" viewBox="0 0 24 24" fill="none" xmlns="http://www.w3.org/2000/svg">
<path d="M3.548 20.938H20.448C20.5806 20.938 20.7078 20.8853 20.8016 20.7915C20.8953 20.6978 20.948 20.5706 20.948 20.438C20.948 20.3054 20.8953 20.1782 20.8016 20.0844C20.7078 19.9907 20.5806 19.938 20.448 19.938H3.548C3.4154 19.938 3.28822 19.9907 3.19445 20.0844C3.10068 20.1782 3.048 20.3054 3.048 20.438C3.048 20.5706 3.10068 20.6978 3.19445 20.7915C3.28822 20.8853 3.4154 20.938 3.548 20.938ZM9.71 17.18C10.1322 17.0612 10.5175 16.8376 10.83 16.53L20.37 6.98999C20.6967 6.662 20.8801 6.21793 20.8801 5.75499C20.8801 5.29205 20.6967 4.84798 20.37 4.51999L19.43 3.58999C19.0971 3.2727 18.6549 3.0957 18.195 3.0957C17.7351 3.0957 17.2929 3.2727 16.96 3.58999L7.42 13.12C7.11237 13.4309 6.89169 13.8171 6.78 14.24L6.04 17C6.00521 17.1261 6.00447 17.2591 6.03784 17.3856C6.07122 17.5121 6.13752 17.6275 6.23 17.72C6.37172 17.8589 6.56159 17.9377 6.76 17.94L9.71 17.18ZM10.12 15.82C9.93559 16.0076 9.70421 16.1423 9.45 16.21L8.48 16.47L7.48 15.47L7.74 14.5C7.80905 14.2463 7.94354 14.0153 8.13 13.83L8.51 13.46L10.5 15.45L10.12 15.82ZM11.21 14.74L9.22 12.75L15.95 6.01999L17.94 8.00999L11.21 14.74ZM19.66 6.28999L18.65 7.29999L16.66 5.30999L17.67 4.28999C17.8106 4.14954 18.0013 4.07065 18.2 4.07065C18.3988 4.07065 18.5894 4.14954 18.73 4.28999L19.66 5.22999C19.7995 5.37113 19.8777 5.56156 19.8777 5.75999C19.8777 5.95842 19.7995 6.14885 19.66 6.28999Z" fill="black"/>
</svg>
